<?xml version="1.0" encoding="UTF-8" standalone="no"?>
<!DOCTYPE svg PUBLIC "-//W3C//DTD SVG 1.1//EN" "http://www.w3.org/Graphics/SVG/1.1/DTD/svg11.dtd">
<svg width="100%" height="100%" viewBox="0 0 290 188" version="1.1" xmlns="http://www.w3.org/2000/svg" xmlns:xlink="http://www.w3.org/1999/xlink" xml:space="preserve" xmlns:serif="http://www.serif.com/" style="fill-rule:evenodd;clip-rule:evenodd;stroke-linejoin:round;stroke-miterlimit:2;">
    <g transform="matrix(0.0874257,0,0,-0.0874257,-302.599,607.609)">
        <path d="M6107,6932C6097,6922 6090,6897 6090,6877L6090,6840L5508,6838L4925,6835L4866,6748L4806,6660L4721,6658C4517,6655 4390,6655 4389,6660C4389,6663 4388,6684 4386,6708C4385,6732 4377,6756 4369,6761C4361,6766 4324,6769 4285,6768L4215,6765L4212,6713L4209,6660L4140,6660L4140,6709C4140,6749 4136,6762 4118,6774C4106,6783 4089,6790 4080,6790C4066,6790 4062,6801 4058,6847C4057,6854 4053,6857 4049,6854C4045,6852 4039,6854 4035,6860C4031,6866 3974,6870 3892,6870C3741,6870 3710,6861 3710,6814C3710,6797 3705,6790 3690,6790C3655,6790 3630,6755 3630,6706C3630,6663 3630,6663 3588,6656C3530,6647 3494,6623 3475,6581C3461,6549 3460,6459 3462,5720L3465,4895L3487,4864C3536,4795 3411,4800 5123,4802C6665,4805 6669,4805 6697,4826C6712,4837 6735,4866 6748,4890L6770,4934L6770,6706L6748,6750C6715,6813 6682,6833 6605,6838L6540,6842L6540,6886C6540,6919 6535,6932 6521,6940C6509,6946 6423,6950 6312,6950C6142,6950 6121,6948 6107,6932ZM6500,6900L6500,6840L6140,6840L6140,6900L6500,6900ZM4020,6805C4020,6792 3998,6790 3885,6790C3762,6790 3738,6794 3757,6813C3760,6817 3821,6820 3892,6820C3999,6820 4020,6818 4020,6805ZM6659,6790L6715,6742L6721,6210L6305,6210C5943,6210 5889,6208 5884,6195C5880,6186 5894,6158 5918,6127C6010,6007 6059,5866 6067,5705C6079,5461 6000,5265 5817,5087C5740,5013 5736,5007 5754,4994C5770,4983 5853,4982 6246,4986L6720,4991L6720,4960C6720,4920 6698,4877 6668,4863C6635,4846 6504,4845 4948,4848L3570,4850L3541,4878C3519,4898 3510,4916 3508,4945L3505,4985L4210,4986C4810,4988 4915,4990 4918,5002C4919,5010 4893,5040 4860,5070C4791,5129 4705,5239 4667,5315C4612,5426 4596,5504 4595,5660C4595,5784 4598,5816 4618,5880C4644,5964 4705,6083 4751,6142C4808,6214 4843,6210 4138,6212L3505,6215L3503,6365C3502,6448 3505,6530 3511,6547C3532,6613 3499,6610 4200,6610L4835,6610L4860,6652C4874,6674 4893,6705 4902,6719C4912,6733 4925,6755 4931,6768L4943,6790L6659,6790ZM4088,6740C4095,6740 4100,6725 4100,6701C4100,6679 4095,6661 4088,6658C4081,6656 3984,6656 3872,6658L3669,6662L3674,6698C3677,6718 3679,6736 3680,6737C3681,6743 3764,6745 3910,6743C4001,6741 4081,6740 4088,6740ZM4338,6688C4335,6657 4333,6655 4295,6655C4257,6655 4255,6657 4252,6688C4249,6720 4249,6720 4295,6720C4341,6720 4341,6720 4338,6688ZM4710,6165C4710,6163 4698,6144 4684,6123C4640,6058 4601,5975 4574,5883C4552,5809 4547,5774 4546,5670C4545,5521 4563,5434 4619,5315C4667,5214 4701,5165 4774,5090L4833,5030L4511,5030C4335,5030 4190,5031 4190,5033C4190,5034 4178,5121 4165,5225C4118,5573 4092,5774 4075,5905C4057,6047 4043,6082 3990,6117C3958,6139 3949,6140 3729,6140C3532,6140 3500,6142 3500,6155C3500,6168 3574,6170 4105,6170C4438,6170 4710,6168 4710,6165ZM6720,6170L6720,5030L5826,5030L5886,5093C6015,5225 6085,5371 6111,5560C6136,5754 6086,5960 5969,6138L5948,6170L6720,6170ZM3974,6077C4005,6056 4014,6024 4035,5855C4044,5784 4071,5577 4096,5395C4120,5214 4140,5057 4140,5047C4140,5031 4120,5030 3823,5032L3505,5035L3502,5555C3501,5841 3502,6081 3505,6089C3514,6111 3938,6100 3974,6077Z" style="fill-rule:nonzero;"/>
    </g>
    <g transform="matrix(0.0874257,0,0,-0.0874257,-302.599,607.609)">
        <path d="M5954,6707C5952,6700 5951,6618 5952,6525L5955,6355L6495,6355L6495,6715L6227,6718C6015,6720 5958,6718 5954,6707ZM6450,6680L6450,6390L5990,6390L5990,6680L6450,6680Z" style="fill-rule:nonzero;"/>
    </g>
    <g transform="matrix(0.0874257,0,0,-0.0874257,-302.599,607.609)">
        <path d="M5080,6680C5065,6652 5071,6511 5088,6494C5097,6484 5131,6480 5200,6480C5288,6480 5300,6482 5310,6499C5324,6527 5323,6673 5308,6688C5300,6696 5260,6700 5193,6700C5101,6700 5090,6698 5080,6680ZM5270,6650L5270,6530L5120,6530L5120,6650L5270,6650Z" style="fill-rule:nonzero;"/>
    </g>
    <g transform="matrix(0.0874257,0,0,-0.0874257,-302.599,607.609)">
        <path d="M4433,6490C4397,6468 4373,6408 4384,6365C4388,6350 4404,6325 4420,6309C4443,6285 4457,6280 4495,6280C4615,6280 4660,6408 4568,6485C4532,6516 4478,6518 4433,6490ZM4553,6438C4609,6373 4511,6279 4450,6340C4438,6352 4430,6373 4430,6394C4430,6461 4508,6489 4553,6438Z" style="fill-rule:nonzero;"/>
    </g>
    <g transform="matrix(0.0874257,0,0,-0.0874257,-302.599,607.609)">
        <path d="M5185,6345C5039,6315 4917,6249 4815,6146C4695,6025 4620,5861 4617,5715C4615,5651 4617,5645 4635,5645C4653,5645 4656,5654 4661,5723C4682,5974 4870,6203 5122,6282C5183,6301 5217,6305 5330,6305C5446,6305 5475,6302 5535,6281C5657,6240 5719,6201 5810,6110C5928,5991 5982,5879 5998,5718C6004,5653 6007,5645 6028,5642C6047,5639 6050,5643 6050,5677C6049,5763 6006,5912 5955,6002C5866,6160 5700,6285 5513,6336C5430,6358 5270,6363 5185,6345Z" style="fill-rule:nonzero;"/>
    </g>
    <g transform="matrix(0.0874257,0,0,-0.0874257,-302.599,607.609)">
        <path d="M5195,6254C4889,6189 4674,5907 4693,5596C4713,5258 4988,4998 5325,4999C5434,4999 5500,5014 5595,5060C5819,5168 5960,5390 5960,5634C5960,5708 5930,5834 5895,5905C5832,6035 5724,6140 5585,6206C5458,6267 5332,6282 5195,6254ZM5459,6204C5566,6178 5656,6125 5741,6040C5859,5922 5910,5797 5910,5630C5910,5424 5820,5258 5644,5141C5557,5082 5471,5053 5362,5044C5088,5022 4826,5213 4756,5486C4736,5564 4735,5708 4755,5783C4796,5940 4913,6085 5058,6159C5170,6216 5336,6234 5459,6204Z" style="fill-rule:nonzero;"/>
    </g>
    <g transform="matrix(0.0874257,0,0,-0.0874257,-302.599,607.609)">
        <path d="M5220,6154C5113,6131 5022,6080 4946,6000C4737,5778 4738,5473 4950,5259C5056,5152 5180,5100 5329,5100C5579,5101 5793,5279 5846,5530C5905,5810 5713,6094 5422,6155C5340,6173 5304,6173 5220,6154ZM5422,6109C5561,6080 5699,5973 5759,5848C5877,5598 5781,5317 5535,5194C5268,5062 4941,5209 4856,5499C4837,5565 4835,5687 4854,5755C4921,6005 5171,6161 5422,6109Z" style="fill-rule:nonzero;"/>
    </g>
    <g transform="matrix(0.0874257,0,0,-0.0874257,-302.599,607.609)">
        <path d="M5237,5999C5133,5974 5027,5889 4984,5795C4895,5601 4973,5382 5163,5291C5355,5199 5577,5282 5668,5478C5691,5527 5695,5549 5695,5630C5695,5712 5691,5733 5668,5782C5590,5949 5410,6040 5237,5999ZM5447,5938C5525,5909 5599,5835 5629,5755C5648,5706 5651,5681 5648,5615C5643,5517 5618,5457 5558,5398C5487,5327 5431,5305 5325,5305C5219,5305 5168,5324 5097,5389C4997,5481 4964,5650 5021,5770C5063,5856 5140,5923 5230,5951C5282,5967 5388,5961 5447,5938Z" style="fill-rule:nonzero;"/>
    </g>
    <g transform="matrix(0.0874257,0,0,-0.0874257,-302.599,607.609)">
        <path d="M5255,5906C5195,5887 5159,5865 5123,5828C5071,5773 5032,5680 5049,5651C5064,5628 5085,5645 5097,5691C5114,5754 5148,5800 5204,5835C5246,5860 5264,5865 5324,5866C5383,5867 5396,5870 5398,5885C5400,5895 5396,5906 5388,5911C5369,5923 5302,5921 5255,5906Z" style="fill-rule:nonzero;"/>
    </g>
    <g transform="matrix(0.0874257,0,0,-0.0874257,-302.599,607.609)">
        <path d="M4159,6107C4122,6082 4104,6036 4114,5995C4133,5918 4234,5892 4291,5949C4345,6003 4325,6093 4253,6121C4216,6135 4196,6132 4159,6107ZM4262,6063C4286,6042 4285,6005 4260,5980C4219,5939 4160,5967 4160,6026C4160,6077 4222,6100 4262,6063Z" style="fill-rule:nonzero;"/>
    </g>
</svg>
