<?xml version="1.0" standalone="no"?>
<!DOCTYPE svg PUBLIC "-//W3C//DTD SVG 20010904//EN"
 "http://www.w3.org/TR/2001/REC-SVG-20010904/DTD/svg10.dtd">
<svg version="1.0" xmlns="http://www.w3.org/2000/svg"
 width="1024.000000pt" height="1024.000000pt" viewBox="0 0 1024.000000 1024.000000"
 preserveAspectRatio="xMidYMid meet">
<metadata>
Created by potrace 1.16, written by Peter Selinger 2001-2019
</metadata>
<g transform="translate(0.000000,1024.000000) scale(0.100000,-0.100000)"
fill="#000000" stroke="none">
<path d="M5439 9586 c-61 -16 -105 -49 -131 -99 -43 -83 -19 -196 54 -250 18
-13 74 -46 125 -71 69 -36 94 -54 101 -74 13 -39 -2 -71 -43 -88 -68 -28 -151
10 -176 80 l-12 34 -74 -25 c-40 -14 -73 -28 -73 -31 0 -21 65 -114 97 -141
80 -66 234 -87 319 -43 118 60 158 203 86 307 -22 32 -53 53 -147 102 -136 70
-155 92 -118 141 16 22 29 28 67 30 45 3 51 0 86 -37 l39 -41 60 22 c34 12 61
26 61 32 0 23 -52 95 -87 119 -36 25 -119 48 -167 46 -11 0 -42 -6 -67 -13z"/>
<path d="M4378 9550 c-129 -39 -156 -171 -62 -296 l23 -31 -26 -24 c-58 -54
-82 -181 -48 -261 34 -83 137 -130 237 -109 56 13 122 47 151 79 18 19 18 19
49 -10 23 -21 38 -28 57 -24 14 3 57 8 96 11 l70 7 -24 19 c-13 11 -51 45 -84
75 l-60 56 16 32 c19 35 57 143 57 161 0 13 -106 39 -121 29 -5 -3 -9 -13 -9
-22 0 -9 -10 -38 -23 -65 l-22 -47 -52 42 -51 42 34 40 c81 94 63 239 -36 288
-37 19 -123 23 -172 8z m102 -120 c26 -26 26 -71 0 -101 l-20 -24 -25 28 c-38
42 -43 76 -15 99 28 23 35 23 60 -2z m27 -355 c39 -33 70 -64 69 -69 -4 -18
-71 -46 -109 -46 -56 0 -91 40 -84 98 4 39 32 86 47 80 3 -2 38 -30 77 -63z"/>
<path d="M5971 9493 c-65 -251 -161 -635 -161 -647 0 -16 61 -37 114 -40 29
-1 29 -1 64 134 19 74 36 136 37 138 3 4 235 -54 241 -60 2 -2 -12 -62 -31
-134 -19 -71 -35 -134 -35 -139 0 -11 130 -58 138 -50 12 12 191 684 183 689
-23 14 -133 37 -140 30 -5 -5 -16 -40 -25 -79 -10 -38 -24 -93 -32 -121 l-15
-51 -122 30 c-67 16 -123 31 -124 31 -1 1 13 62 32 136 19 74 33 135 32 136
-3 2 -136 34 -141 34 -3 0 -10 -17 -15 -37z"/>
<path d="M3498 9303 c-38 -14 -68 -30 -68 -35 0 -6 48 -156 106 -335 66 -202
111 -323 118 -320 6 2 90 30 186 62 96 32 179 61 184 66 8 7 -27 113 -45 133
-6 6 -121 -29 -221 -69 -14 -6 -29 32 -103 259 -47 146 -87 266 -88 265 -1 0
-32 -12 -69 -26z"/>
<path d="M6627 9093 c-53 -120 -116 -266 -141 -325 l-45 -106 42 -17 c23 -9
108 -46 189 -81 80 -35 149 -64 153 -64 9 0 56 110 50 119 -2 5 -55 30 -117
56 -62 27 -117 52 -121 55 -5 4 6 39 25 78 l33 70 113 -48 113 -48 25 55 c13
31 24 58 24 62 0 3 -46 26 -102 50 -57 24 -107 47 -111 51 -4 4 4 34 18 67
l26 60 121 -49 c66 -27 124 -46 128 -41 11 12 53 113 49 117 -5 4 -368 156
-373 156 -2 0 -46 -98 -99 -217z"/>
<path d="M2988 9100 c-31 -16 -59 -34 -62 -39 -7 -11 22 -79 173 -401 60 -129
113 -235 118 -235 4 0 90 38 190 84 l182 84 -35 68 -34 68 -116 -54 c-64 -30
-118 -55 -119 -55 -4 0 -74 156 -151 335 -40 93 -76 171 -81 172 -4 1 -34 -11
-65 -27z"/>
<path d="M7205 8957 c-32 -56 -113 -189 -178 -296 -131 -215 -128 -198 -45
-245 l47 -27 27 43 c15 24 65 106 112 183 46 77 86 142 89 145 3 3 2 -112 -2
-255 l-7 -260 58 -43 c46 -33 61 -39 69 -30 38 43 376 591 368 597 -78 51
-114 73 -117 70 -6 -8 -160 -255 -198 -319 l-39 -65 7 265 7 265 -61 38 c-33
20 -64 37 -69 37 -4 0 -35 -47 -68 -103z"/>
<path d="M2482 8794 c-67 -43 -73 -49 -67 -73 3 -14 44 -150 90 -301 46 -151
92 -303 102 -338 11 -40 22 -60 30 -58 25 10 113 81 113 91 0 6 -9 39 -21 74
-12 34 -20 63 -18 65 14 11 189 126 192 126 3 0 31 -20 62 -45 l58 -44 26 18
c14 10 46 31 70 46 l44 27 -24 19 c-47 38 -574 434 -579 436 -3 2 -38 -18 -78
-43z m267 -282 l44 -38 -52 -38 c-29 -20 -58 -39 -65 -42 -8 -3 -24 34 -46
108 -18 62 -36 120 -39 128 -5 14 72 -43 158 -118z"/>
<path d="M4805 8555 c-497 -48 -1012 -200 -1382 -408 -662 -372 -1210 -964
-1511 -1631 -148 -328 -235 -635 -289 -1017 -25 -177 -25 -672 0 -849 74 -527
254 -996 564 -1470 339 -517 814 -934 1400 -1229 285 -143 754 -271 1158 -317
182 -21 530 -23 695 -5 751 83 1391 350 1945 812 630 526 1077 1336 1205 2184
27 179 38 551 21 749 -72 854 -459 1653 -1087 2244 -500 470 -1126 784 -1784
896 -298 50 -673 67 -935 41z m704 -181 c513 -58 930 -200 1358 -464 396 -245
727 -558 997 -944 42 -60 75 -111 72 -113 -2 -2 -26 9 -53 25 -70 42 -215 97
-303 117 -103 22 -327 31 -431 16 -214 -31 -523 -150 -752 -290 -56 -34 -71
-39 -88 -30 -46 24 -361 138 -439 159 -60 15 -127 23 -225 27 -223 8 -289 -10
-812 -219 l-253 -100 0 -124 0 -124 333 0 332 0 195 -236 c243 -293 227 -270
206 -292 -14 -16 -16 -47 -16 -219 l0 -200 158 -7 c86 -3 169 -9 185 -12 l27
-6 0 266 c0 207 -3 266 -13 266 -7 0 -18 9 -25 21 -18 28 -4 47 123 179 56 58
162 169 235 248 l133 142 244 0 243 0 0 36 c0 66 11 74 100 74 89 0 100 -8
100 -74 l0 -35 92 -3 92 -3 188 -233 c103 -129 188 -240 188 -248 0 -20 12
-17 36 9 15 16 23 41 27 89 7 76 25 118 71 166 94 101 244 104 341 7 49 -49
69 -100 73 -187 4 -74 6 -79 48 -128 31 -36 50 -73 68 -128 30 -95 63 -288 71
-413 3 -52 8 -106 10 -121 l5 -28 -415 0 -415 0 0 318 0 317 -340 -3 -340 -3
0 -344 0 -345 -35 0 -35 0 0 375 0 374 -108 113 c-60 62 -150 158 -202 213
-51 55 -96 98 -99 96 -3 -2 -91 -93 -194 -203 l-188 -198 1 -356 c1 -328 -1
-356 -16 -350 -54 21 -204 36 -350 36 l-164 0 0 235 0 235 -370 0 -370 0 0
-271 0 -270 -32 3 -33 3 -3 289 -2 288 -120 133 -120 133 0 283 0 284 -310 3
-310 2 0 -265 0 -266 -115 -126 -115 -126 0 -262 0 -263 83 -11 c176 -25 681
-112 847 -146 333 -68 600 -145 790 -229 l35 -15 -35 -12 c-74 -26 -268 -131
-335 -181 -140 -106 -165 -238 -68 -364 15 -20 104 -101 198 -179 94 -78 184
-157 199 -175 70 -84 89 -179 49 -255 -46 -88 -177 -187 -391 -294 -101 -51
-354 -161 -368 -161 -2 0 -4 306 -4 680 0 562 -2 685 -14 712 -20 47 -77 98
-122 109 -22 4 -225 9 -451 9 l-413 0 0 25 c0 47 -43 154 -77 195 -20 22 -54
51 -77 63 -40 22 -48 22 -504 25 -323 2 -475 -1 -505 -9 -52 -14 -107 -69
-127 -130 l-15 -44 -185 -6 c-161 -5 -196 -9 -273 -32 -48 -15 -95 -27 -104
-27 -14 0 -15 24 -9 268 3 147 9 287 14 311 l7 44 110 -2 c234 -3 661 -33 818
-57 l37 -6 0 69 0 69 -89 18 c-203 41 -327 146 -347 295 -4 31 -2 68 6 95 11
41 10 46 -14 82 -14 21 -33 60 -42 87 -9 28 -21 46 -28 44 -65 -25 -318 -108
-321 -106 -5 6 88 247 144 371 106 234 259 483 426 693 117 146 422 448 565
559 521 404 1150 640 1825 685 164 12 450 4 624 -15z m-1270 -1910 c19 -24 21
-40 21 -145 l0 -119 -70 0 -70 0 0 104 c0 58 5 117 10 133 22 57 75 70 109 27z
m2171 -709 l0 -95 -62 0 -63 0 3 95 3 95 60 0 59 0 0 -95z m250 0 l0 -95 -60
0 -60 0 0 95 0 95 60 0 60 0 0 -95z m-2383 29 c66 -49 68 -57 71 -274 l3 -199
-38 6 c-21 3 -92 14 -158 24 -66 10 -123 19 -127 19 -5 0 -8 73 -8 163 0 149
2 165 23 202 32 57 88 87 155 82 32 -2 63 -11 79 -23z m1069 -169 c13 -20 17
-51 18 -128 l1 -102 -57 -3 -58 -3 0 101 c0 117 15 160 55 160 15 0 31 -10 41
-25z m-251 -15 c10 -20 15 -59 15 -130 l0 -100 -60 0 -60 0 0 100 c0 122 14
160 60 160 23 0 33 -7 45 -30z m2115 -70 l0 -100 -60 0 -60 0 0 100 0 100 60
0 60 0 0 -100z m250 0 l0 -101 -57 3 -58 3 -3 98 -3 97 61 0 60 0 0 -100z
m-920 -235 l0 -165 -29 0 c-15 0 -49 -3 -75 -6 l-46 -7 0 172 0 171 75 0 75 0
0 -165z m1864 -163 l49 -4 -7 -171 c-3 -94 -8 -172 -9 -173 -2 -2 -113 -8
-247 -13 -566 -24 -1056 -100 -1671 -257 -123 -32 -240 -58 -259 -58 -51 0
-217 73 -257 112 -40 39 -42 70 -7 111 53 63 251 176 529 302 155 70 164 73
295 89 239 31 531 53 850 63 134 5 680 4 734 -1z m-2019 -121 c-6 -5 -59 -30
-120 -56 -60 -26 -157 -72 -215 -103 -266 -141 -332 -209 -300 -309 30 -91 94
-140 365 -276 281 -140 441 -262 534 -406 104 -162 110 -372 16 -564 -66 -136
-155 -238 -545 -627 -437 -436 -538 -559 -663 -807 l-36 -71 -163 -7 c-490
-22 -1029 77 -1511 277 l-98 41 33 34 c52 54 254 225 383 323 230 176 417 295
875 555 411 234 583 349 728 489 73 70 100 105 129 162 33 69 35 78 31 147
-10 163 -94 245 -539 530 -109 70 -155 115 -170 169 -9 36 -8 48 6 74 73 137
546 314 1060 398 100 16 196 33 205 35 2 0 0 -3 -5 -8z m2030 -398 c-21 -125
-68 -339 -88 -403 l-23 -75 -49 -7 c-28 -4 -120 -16 -205 -28 -278 -39 -672
-125 -910 -200 l-65 -20 -25 32 c-92 121 -228 234 -427 356 -51 32 -89 60 -85
63 20 18 546 144 802 193 365 68 755 116 1023 124 l58 2 -6 -37z m-5230 -47
c33 -9 102 -37 153 -62 254 -127 422 -399 422 -683 0 -373 -258 -686 -627
-763 -171 -35 -323 -15 -488 66 -165 81 -302 227 -370 395 -112 276 -50 614
151 827 113 118 273 206 428 234 71 13 259 5 331 -14z m1099 -106 c26 -27 28
-55 5 -83 l-20 -27 -150 0 c-136 0 -151 2 -169 20 -38 38 -15 106 38 112 15 2
84 1 154 -2 95 -4 131 -9 142 -20z"/>
<path d="M4176 7989 c-3 -8 -50 -259 -106 -559 -56 -300 -104 -555 -107 -567
-4 -18 -10 -22 -27 -17 -34 8 -59 -27 -64 -91 l-4 -55 321 0 321 0 0 49 c0 57
-30 104 -63 99 -20 -3 -27 26 -137 569 -63 314 -118 575 -122 579 -4 4 -10 1
-12 -7z"/>
<path d="M2740 6961 c-50 -16 -87 -41 -124 -81 -36 -40 -86 -131 -86 -157 0
-7 -13 -19 -28 -27 -39 -20 -108 -91 -137 -141 -82 -139 -68 -361 30 -490 34
-43 34 -44 18 -77 -50 -100 15 -233 144 -293 40 -19 170 -55 199 -55 2 0 4 71
4 158 l0 158 -76 95 c-84 104 -99 130 -91 153 13 35 46 16 104 -59 31 -41 60
-75 63 -75 3 0 5 50 5 111 0 62 2 133 5 158 4 41 8 46 30 46 l25 0 5 -154 5
-154 49 57 c35 41 54 56 70 54 40 -6 28 -40 -49 -136 l-75 -94 0 -169 c0 -129
3 -169 13 -169 6 0 41 5 77 11 124 20 225 84 273 174 28 53 31 183 4 232 -17
32 -17 33 13 79 39 62 54 133 48 235 -3 62 -11 99 -30 141 -27 59 -106 148
-132 148 -9 0 -16 16 -21 48 -14 101 -78 200 -161 248 -46 27 -131 39 -174 25z"/>
<path d="M3504 6486 c-28 -7 -80 -25 -115 -40 l-64 -27 0 -112 c0 -104 -2
-116 -31 -177 -28 -60 -30 -68 -18 -100 20 -55 17 -172 -5 -230 -51 -134 -188
-226 -364 -245 l-67 -7 0 -63 0 -62 83 -7 c81 -6 398 -46 561 -70 l86 -12 0
270 0 271 114 125 115 125 3 159 c3 184 8 174 -102 200 -77 18 -126 19 -196 2z"/>
<path d="M6550 6383 c0 -7 22 -30 266 -286 l141 -147 335 2 335 3 -175 218
-174 217 -364 0 c-200 0 -364 -3 -364 -7z"/>
<path d="M4580 6164 l0 -79 112 -127 111 -128 369 0 368 0 -166 200 -165 200
-299 0 c-164 0 -305 3 -314 6 -14 5 -16 -5 -16 -72z"/>
<path d="M7925 6218 c-58 -34 -89 -95 -87 -174 0 -60 -1 -64 -42 -106 -128
-134 -134 -358 -12 -496 35 -39 117 -82 159 -82 l27 0 0 175 c0 148 2 177 15
181 8 4 22 1 30 -6 12 -10 15 -45 15 -186 0 -96 2 -174 4 -174 2 0 33 9 69 20
115 36 186 139 195 281 7 115 -31 214 -108 286 -28 26 -30 32 -21 57 27 70 -1
164 -64 211 -51 40 -125 45 -180 13z"/>
<path d="M2905 4450 c-243 -34 -446 -210 -531 -460 -15 -43 -19 -83 -19 -180
1 -109 4 -134 27 -198 69 -191 205 -329 396 -400 91 -34 239 -41 346 -18 144
33 288 124 373 239 191 257 173 588 -45 819 -145 154 -345 226 -547 198z m151
-271 c28 -7 51 -21 61 -35 14 -22 14 -26 -1 -48 -15 -23 -19 -24 -91 -19 -92
7 -149 -12 -213 -71 -61 -56 -84 -106 -92 -200 -7 -81 -16 -96 -56 -96 -37 0
-49 27 -48 109 0 97 29 172 91 241 96 107 224 150 349 119z"/>
<path d="M7905 8563 c-11 -2 -30 -6 -42 -9 -33 -7 -91 -61 -115 -107 -30 -59
-21 -114 40 -244 29 -60 52 -117 52 -126 0 -25 -45 -67 -72 -67 -30 0 -84 33
-98 60 -7 12 -12 47 -13 78 l-2 57 -50 11 c-97 23 -95 24 -95 -59 0 -123 53
-203 178 -264 72 -35 132 -29 199 19 63 45 93 98 93 164 0 42 -10 71 -55 162
-30 61 -55 119 -55 130 0 23 40 62 64 62 56 0 106 -66 106 -139 0 -39 1 -41
42 -51 23 -7 53 -12 67 -13 25 -2 26 1 29 53 4 76 -14 132 -60 185 -53 60
-158 109 -213 98z"/>
<path d="M2022 8432 l-54 -47 147 -157 c80 -87 143 -158 139 -158 -7 0 -335
89 -427 115 l-47 14 -61 -56 -60 -56 103 -104 c57 -58 174 -173 262 -256 l158
-151 49 54 49 55 -162 157 -163 158 254 -66 254 -66 56 56 55 55 -240 241
c-131 132 -240 245 -242 250 -6 17 -15 12 -70 -38z"/>
<path d="M8285 8196 l-50 -44 54 -62 54 -62 -44 -37 c-24 -20 -104 -90 -178
-156 -74 -66 -150 -134 -170 -151 l-35 -31 49 -56 c28 -31 54 -57 58 -57 4 0
98 84 209 187 l201 187 59 -63 58 -64 55 47 c30 26 55 51 55 55 0 4 -14 20
-31 37 -17 16 -87 93 -157 172 -69 78 -128 142 -132 142 -3 0 -28 -20 -55 -44z"/>
<path d="M1487 7870 c-21 -28 -40 -56 -43 -63 -2 -7 69 -67 170 -142 97 -72
175 -133 176 -136 0 -3 -26 -2 -57 2 -32 4 -139 15 -238 24 -99 8 -189 17
-199 18 -14 1 -34 -18 -66 -64 l-47 -65 292 -209 c161 -115 297 -211 302 -212
8 -3 83 106 83 120 0 3 -48 38 -107 78 -119 80 -263 187 -263 195 0 3 15 2 33
-1 36 -6 446 -45 476 -45 18 0 101 91 101 111 0 7 -547 425 -570 437 -3 1 -23
-20 -43 -48z"/>
<path d="M8572 7679 c-113 -19 -215 -97 -268 -205 -26 -53 -29 -69 -29 -154 0
-88 3 -101 33 -162 88 -179 293 -244 485 -153 107 51 189 170 204 295 7 63
-20 161 -63 226 -79 119 -216 177 -362 153z m156 -164 c72 -31 121 -102 122
-178 1 -180 -252 -289 -371 -160 -48 52 -62 82 -62 136 0 82 37 143 108 180
79 40 142 47 203 22z"/>
<path d="M1154 7159 c-62 -14 -144 -69 -185 -123 -50 -67 -74 -143 -74 -237 1
-65 6 -86 33 -141 55 -111 155 -185 288 -209 161 -30 310 48 383 201 22 47 26
68 26 150 0 83 -3 102 -28 151 -75 154 -272 246 -443 208z m186 -174 c65 -33
102 -68 126 -119 27 -57 28 -75 14 -128 -23 -81 -102 -137 -196 -138 -71 0
-169 50 -208 107 -67 96 -32 244 69 290 40 18 149 12 195 -12z"/>
<path d="M8910 6928 c-162 -71 -307 -134 -322 -141 l-26 -12 25 -65 c15 -36
27 -66 29 -68 1 -2 91 35 199 82 108 47 195 80 192 73 -3 -7 -67 -102 -142
-212 l-138 -199 24 -68 c13 -37 24 -68 25 -68 2 0 337 138 501 206 159 66 148
51 111 151 l-19 53 -32 -14 c-18 -8 -102 -44 -187 -80 -85 -37 -160 -72 -167
-78 -30 -25 -5 15 135 215 81 116 145 217 144 226 -2 8 -16 41 -30 72 l-27 57
-295 -130z"/>
<path d="M766 6488 c-65 -228 -115 -423 -108 -429 8 -8 114 -41 117 -36 1 1
12 37 23 81 12 43 23 80 25 82 3 3 481 -132 534 -151 8 -3 20 21 33 64 11 37
20 72 20 77 0 5 -118 42 -263 83 -144 41 -267 77 -273 80 -8 4 -5 29 11 84 12
42 19 80 14 83 -10 6 -101 34 -111 34 -4 0 -14 -24 -22 -52z"/>
<path d="M9295 6275 c-93 -24 -241 -60 -327 -80 -87 -21 -158 -42 -158 -46 0
-5 18 -84 40 -177 22 -92 42 -177 45 -190 6 -25 12 -25 106 -1 l36 9 -23 98
c-36 156 -39 143 38 163 78 19 67 30 93 -96 26 -123 22 -117 58 -110 18 4 48
11 68 16 l36 9 -27 114 -27 114 65 17 c48 12 67 13 72 5 4 -7 18 -61 30 -122
22 -101 25 -109 44 -104 12 4 40 9 64 13 23 3 44 9 47 12 2 4 -5 42 -15 86
-10 44 -30 133 -45 198 -16 69 -32 116 -38 116 -7 -1 -88 -21 -182 -44z"/>
<path d="M713 5935 c-133 -60 -178 -272 -81 -390 47 -56 99 -78 174 -73 89 6
126 36 185 156 55 112 77 137 113 128 28 -7 56 -51 56 -87 0 -40 -39 -107 -71
-121 -34 -15 -34 -14 -13 -90 16 -55 18 -57 43 -51 109 26 185 141 184 278 -1
163 -157 270 -299 206 -50 -23 -83 -65 -125 -157 -38 -85 -64 -114 -101 -114
-68 0 -78 108 -15 166 18 17 39 33 45 35 8 3 6 21 -6 64 -20 67 -34 74 -89 50z"/>
<path d="M1835 2737 c-72 -19 -112 -43 -170 -101 -100 -99 -141 -253 -101
-374 22 -67 87 -155 140 -191 57 -39 153 -71 216 -71 57 0 56 0 44 108 l-7 52
-40 0 c-164 0 -263 152 -191 293 41 79 133 146 199 147 45 0 129 -43 158 -81
33 -44 50 -109 42 -164 -8 -48 -13 -43 83 -65 36 -8 57 -9 64 -2 5 5 12 37 15
70 8 82 -23 183 -77 251 -84 106 -245 161 -375 128z"/>
<path d="M8049 2661 c-24 -17 -87 -78 -139 -137 -105 -118 -116 -133 -104
-143 187 -161 535 -451 541 -450 11 1 193 213 227 266 34 51 44 123 26 177
-15 46 -88 111 -142 124 -31 8 -51 8 -79 -2 l-37 -13 -4 48 c-13 131 -177 204
-289 130z m150 -137 c49 -41 38 -85 -42 -163 l-45 -44 -56 49 c-31 26 -56 51
-56 55 0 4 26 35 58 68 66 70 92 76 141 35z m242 -173 c16 -16 29 -39 29 -50
0 -11 -30 -54 -66 -95 -73 -84 -68 -84 -141 -18 l-43 37 48 58 c51 62 96 97
125 97 10 0 32 -13 48 -29z"/>
<path d="M7654 2249 c-21 -17 -47 -37 -57 -44 -17 -12 -8 -27 122 -189 77 -97
147 -189 156 -205 34 -67 10 -137 -58 -170 -94 -46 -122 -27 -290 194 -71 94
-132 176 -136 184 -6 10 -23 3 -74 -31 l-66 -44 149 -194 c83 -107 165 -207
184 -222 107 -88 243 -75 361 33 99 92 125 203 72 309 -25 51 -296 401 -315
408 -5 1 -26 -12 -48 -29z"/>
<path d="M2505 2158 c-237 -153 -535 -353 -535 -359 0 -3 26 -27 59 -52 l58
-46 60 43 59 43 94 -69 c52 -38 102 -73 110 -78 12 -7 11 -19 -10 -84 -13 -42
-22 -77 -19 -79 41 -34 122 -87 126 -83 12 12 232 721 225 726 -68 48 -133 90
-139 90 -4 0 -44 -23 -88 -52z m55 -141 c0 -14 -89 -242 -94 -242 -13 0 -135
90 -133 98 3 9 207 145 220 146 4 1 7 0 7 -2z"/>
<path d="M2966 1886 c-8 -13 -79 -154 -157 -313 -78 -158 -143 -291 -145 -295
-2 -3 26 -23 62 -43 36 -20 66 -35 67 -33 1 1 47 94 102 205 55 111 104 202
108 202 5 1 6 -2 4 -6 -6 -9 11 -404 17 -410 2 -2 75 43 162 99 88 57 165 108
173 113 8 5 -1 -20 -21 -56 -56 -102 -170 -330 -166 -334 1 -1 33 -19 69 -39
l65 -36 160 311 c87 172 160 315 162 320 2 4 -33 27 -78 49 l-82 41 -52 -35
c-28 -19 -98 -69 -156 -110 -57 -42 -108 -76 -112 -76 -4 0 -9 46 -9 103 -1
56 -4 145 -8 197 l-6 94 -65 38 c-36 20 -68 37 -71 37 -4 1 -14 -10 -23 -23z"/>
<path d="M6885 1730 c-27 -16 -54 -31 -59 -33 -8 -3 303 -609 324 -631 4 -4
86 35 181 88 94 52 176 97 182 99 9 3 -28 83 -55 121 -14 18 -20 15 -128 -47
l-114 -66 -59 112 c-32 62 -90 174 -129 250 -39 75 -76 137 -82 137 -6 0 -33
-14 -61 -30z"/>
<path d="M6488 1569 c-200 -31 -338 -215 -307 -411 20 -130 106 -251 219 -306
48 -23 67 -27 145 -27 77 1 99 5 150 28 33 16 80 47 103 70 41 39 102 141 102
169 0 8 -28 19 -70 29 l-69 16 -33 -56 c-26 -45 -44 -62 -87 -83 -30 -16 -66
-28 -80 -28 -112 0 -214 99 -228 220 -21 176 144 281 312 200 25 -12 48 -21
49 -19 2 2 20 30 40 62 l37 58 -23 19 c-55 46 -171 72 -260 59z"/>
<path d="M3721 1387 c-25 -83 -70 -239 -101 -344 -48 -165 -54 -193 -41 -197
124 -38 404 -116 406 -114 3 5 34 132 32 133 -1 1 -57 16 -124 35 -67 18 -126
36 -133 40 -8 5 -6 24 6 71 10 35 21 68 25 73 4 4 58 -6 119 -23 62 -17 114
-30 115 -29 1 2 11 31 23 64 l20 62 -117 32 c-64 18 -118 34 -120 36 -2 2 6
34 18 72 l21 70 127 -38 c71 -21 131 -35 135 -31 12 12 38 115 31 122 -6 5
-386 119 -396 119 -1 0 -22 -69 -46 -153z"/>
<path d="M4320 1390 c0 -5 -20 -144 -45 -307 -24 -164 -47 -321 -51 -349 l-6
-51 73 -10 c41 -6 75 -10 76 -9 1 1 10 59 19 128 l17 126 36 -5 c20 -3 36 -6
37 -7 0 -1 24 -62 51 -136 l51 -135 77 -9 c42 -5 78 -6 81 -4 2 3 -22 68 -54
145 l-58 140 33 12 c83 31 132 106 133 205 0 104 -51 176 -148 210 -23 8 -94
24 -159 35 -65 12 -128 23 -140 26 -13 3 -23 1 -23 -5z m223 -166 c21 -4 52
-18 68 -31 24 -20 29 -33 29 -68 0 -28 -7 -51 -22 -70 -21 -27 -23 -28 -106
-22 -47 4 -87 8 -89 11 -4 4 15 159 23 184 3 9 13 12 31 8 16 -3 45 -8 66 -12z"/>
<path d="M5049 965 l-116 -365 77 0 77 0 22 75 22 75 124 0 c69 0 128 0 133 1
4 0 18 -31 32 -70 l25 -71 84 0 c75 0 83 2 77 18 -4 9 -68 171 -143 360 l-137
342 -81 0 -80 0 -116 -365z m211 161 c0 -7 18 -62 40 -121 22 -59 40 -111 40
-115 0 -4 -39 -8 -86 -9 -79 -2 -86 0 -80 16 4 10 22 69 39 130 28 100 47 139
47 99z"/>
</g>
</svg>
